# xmcd
#
# Track frame offsets:
#	150
#	14595
#	31422
#	43558
#	63400
#	75413
#	87483
#	99264
#	112222
#	128382
#	147652
#	159978
#	171665
#
# Disc length: 2502 seconds
#
# Revision: 0
# Processed by: cddbd v1.4PL0 Copyright (c) Steve Scherf et al.
# Submitted via: audiograbber 1.82.02
#
DISCID=ab09c40d
DTITLE=Bayou Brothers - Baptised In The Blues
DYEAR=1900
DGENRE=
TTITLE0=Baptise Me
TTITLE1=Blue Sky Turns To Grey
TTITLE2=Poor Man But A Good Man
TTITLE3=St James Infirmary
TTITLE4=Miners Prayer
TTITLE5=Milwaukee Blues
TTITLE6=Rose In The Spring
TTITLE7=Lonesome Valley
TTITLE8=Frankie And Albert
TTITLE9=Ain't Gonna Be Treated This Way
TTITLE10=Down By The Riverside
TTITLE11=Ain't Leaving Your Love
TTITLE12=As Long As The River Flows
EXTD=
EXTT0=
EXTT1=
EXTT2=
EXTT3=
EXTT4=
EXTT5=
EXTT6=
EXTT7=
EXTT8=
EXTT9=
EXTT10=
EXTT11=
EXTT12=
PLAYORDER=
